<?xml version="1.0" standalone="no"?>
<!DOCTYPE svg PUBLIC "-//W3C//DTD SVG 20010904//EN"
 "http://www.w3.org/TR/2001/REC-SVG-20010904/DTD/svg10.dtd">
<svg version="1.0" xmlns="http://www.w3.org/2000/svg"
 width="870.000000pt" height="870.000000pt" viewBox="0 0 870.000000 870.000000"
 preserveAspectRatio="xMidYMid meet">

<g transform="translate(0.000000,870.000000) scale(0.100000,-0.100000)"
fill="#000000" stroke="none">
<path d="M4160 8138 c-169 -12 -317 -27 -385 -38 -142 -22 -283 -50 -310 -60
-11 -5 -31 -11 -45 -14 -86 -17 -127 -28 -142 -36 -10 -6 -27 -10 -37 -10 -11
0 -22 -4 -25 -9 -4 -5 -25 -12 -48 -16 -23 -4 -49 -11 -58 -15 -27 -13 -64
-28 -115 -45 -27 -10 -73 -28 -101 -41 -28 -13 -58 -24 -67 -24 -10 0 -17 -4
-17 -10 0 -5 -6 -10 -13 -10 -16 0 -284 -135 -345 -174 -23 -14 -44 -26 -47
-26 -9 0 -120 -74 -123 -82 -2 -5 -8 -8 -13 -8 -6 0 -34 -18 -64 -40 -30 -22
-59 -40 -65 -40 -5 0 -10 -4 -10 -8 0 -4 -12 -15 -28 -24 -15 -9 -36 -25 -47
-35 -11 -10 -45 -37 -75 -60 -134 -102 -321 -280 -471 -448 -24 -27 -52 -59
-62 -70 -10 -11 -37 -45 -60 -75 -23 -30 -50 -64 -60 -75 -10 -11 -26 -32 -35
-47 -9 -16 -20 -28 -24 -28 -4 0 -8 -5 -8 -10 0 -6 -18 -35 -40 -65 -22 -30
-40 -58 -40 -64 0 -5 -3 -11 -7 -13 -9 -3 -83 -114 -83 -123 0 -3 -11 -24 -25
-46 -38 -59 -175 -331 -175 -346 0 -7 -4 -13 -10 -13 -5 0 -10 -7 -10 -17 0
-9 -11 -39 -24 -67 -13 -28 -31 -73 -41 -101 -17 -51 -32 -88 -45 -115 -4 -9
-11 -35 -15 -58 -4 -23 -11 -44 -16 -48 -5 -3 -9 -14 -9 -25 0 -10 -4 -27 -10
-37 -8 -15 -19 -56 -36 -142 -3 -14 -9 -34 -14 -45 -19 -49 -64 -311 -79 -465
-34 -347 -34 -493 0 -840 15 -154 60 -416 79 -465 5 -11 11 -31 14 -45 17 -86
28 -127 36 -142 6 -10 10 -25 10 -33 0 -8 4 -23 9 -33 6 -9 18 -44 27 -77 10
-33 20 -64 24 -70 4 -5 16 -38 26 -72 10 -35 22 -63 27 -63 4 0 7 -7 7 -15 0
-8 4 -23 10 -33 5 -9 17 -35 26 -57 27 -67 153 -315 191 -379 76 -126 98 -161
105 -164 5 -2 8 -8 8 -13 0 -6 18 -34 40 -64 22 -30 40 -59 40 -65 0 -5 3 -10
8 -10 4 0 18 -17 32 -37 14 -20 30 -41 35 -47 6 -6 35 -42 65 -81 114 -146
272 -312 435 -456 28 -24 52 -46 55 -49 3 -3 37 -30 75 -60 39 -30 72 -57 75
-60 13 -16 221 -160 230 -160 6 0 10 -3 10 -8 0 -4 9 -12 20 -17 11 -6 66 -38
123 -72 98 -59 316 -171 402 -207 22 -9 48 -21 57 -26 10 -6 25 -10 33 -10 8
0 15 -4 15 -10 0 -5 9 -10 20 -10 10 0 36 -7 57 -16 66 -29 77 -33 133 -49 30
-9 63 -21 72 -26 10 -5 25 -9 33 -9 8 0 23 -4 33 -10 15 -8 56 -19 142 -36 14
-3 34 -9 45 -14 21 -8 116 -28 203 -42 28 -4 78 -13 110 -18 185 -32 544 -52
729 -39 203 13 343 26 416 39 31 5 81 14 110 18 86 14 181 34 202 42 11 5 31
11 45 14 102 22 140 32 146 39 4 4 16 7 26 7 10 0 26 4 36 9 9 5 42 17 72 26
30 9 64 20 75 24 20 9 92 37 130 51 11 4 31 12 45 18 14 6 48 21 75 32 140 60
356 176 481 258 10 7 27 15 37 18 9 4 17 10 17 15 0 5 4 9 10 9 9 0 199 133
245 172 11 9 40 33 65 52 177 142 414 379 556 556 19 25 43 54 52 65 39 46
172 236 172 245 0 6 4 10 9 10 5 0 12 8 15 18 3 9 12 26 19 37 71 116 95 156
114 190 30 53 115 228 142 290 37 84 39 90 76 185 10 25 21 54 26 65 4 11 15
45 24 75 9 30 21 63 26 72 5 10 9 26 9 36 0 10 3 22 7 26 7 6 17 44 39 146 3
14 9 34 14 45 8 21 28 116 42 203 4 28 13 78 18 110 12 70 25 205 40 415 11
156 5 299 -21 577 -17 173 -20 194 -29 215 -5 11 -11 40 -14 65 -6 57 -26 159
-37 185 -4 11 -10 31 -13 45 -17 86 -28 127 -36 142 -6 10 -10 25 -10 33 0 8
-4 23 -9 33 -5 9 -17 42 -26 72 -16 56 -20 67 -49 133 -9 21 -16 47 -16 57 0
11 -4 20 -10 20 -5 0 -10 7 -10 15 0 8 -4 23 -10 33 -5 9 -17 35 -26 57 -36
86 -148 304 -207 402 -34 57 -66 112 -72 123 -5 11 -13 20 -17 20 -5 0 -8 4
-8 10 0 9 -133 199 -172 245 -17 21 -77 95 -105 130 -113 142 -342 364 -515
500 -34 27 -68 54 -74 60 -6 5 -27 21 -47 35 -20 14 -37 28 -37 33 0 4 -5 7
-10 7 -6 0 -35 18 -65 40 -30 22 -58 40 -64 40 -5 0 -11 4 -13 8 -9 24 -402
238 -543 296 -22 9 -48 21 -57 26 -10 6 -25 10 -33 10 -8 0 -15 3 -15 8 0 4
-28 16 -63 26 -34 10 -66 22 -72 26 -5 4 -37 14 -70 24 -33 9 -68 21 -77 27
-10 5 -25 9 -33 9 -8 0 -23 4 -33 10 -15 8 -56 19 -142 36 -14 3 -34 9 -45 14
-50 20 -314 65 -470 79 -317 31 -414 34 -605 19z m522 -258 c24 -5 88 -14 143
-20 159 -17 189 -21 200 -31 5 -5 22 -9 39 -9 35 0 154 -27 178 -40 10 -6 25
-10 34 -10 21 0 122 -29 146 -41 10 -5 25 -9 33 -9 8 0 23 -4 33 -9 9 -5 40
-17 67 -26 28 -9 64 -23 82 -31 17 -8 34 -14 37 -14 7 0 67 -26 204 -91 57
-27 107 -49 112 -49 6 0 10 -3 10 -7 0 -5 20 -17 45 -28 25 -11 45 -23 45 -27
0 -5 5 -8 10 -8 6 0 46 -22 90 -50 44 -27 84 -50 90 -50 5 0 10 -3 10 -8 0 -4
16 -16 35 -26 19 -11 35 -23 35 -28 0 -4 5 -8 11 -8 9 0 75 -45 89 -60 3 -4
23 -19 45 -35 22 -16 67 -52 100 -80 33 -27 71 -59 84 -70 33 -26 300 -293
326 -326 11 -13 43 -51 70 -84 28 -33 64 -78 80 -100 16 -22 31 -42 35 -45 15
-14 60 -80 60 -88 0 -6 4 -12 9 -14 7 -2 46 -64 174 -273 10 -17 24 -42 30
-57 6 -16 15 -28 19 -28 4 0 8 -5 8 -10 0 -6 20 -52 44 -103 67 -140 95 -204
102 -234 4 -16 10 -32 14 -38 5 -5 20 -46 35 -90 14 -44 30 -89 34 -100 16
-38 41 -132 41 -152 0 -11 3 -23 7 -27 10 -10 31 -92 39 -156 3 -30 10 -59 14
-65 8 -11 13 -40 30 -195 6 -52 15 -120 20 -151 13 -71 13 -586 0 -658 -5 -31
-14 -99 -20 -151 -7 -52 -14 -115 -17 -140 -3 -25 -9 -49 -13 -55 -4 -5 -11
-35 -14 -65 -8 -64 -29 -146 -39 -156 -4 -4 -7 -16 -7 -27 0 -20 -25 -114 -41
-152 -4 -11 -20 -56 -34 -100 -15 -44 -30 -84 -35 -90 -4 -5 -10 -22 -14 -38
-10 -43 -157 -354 -203 -432 -68 -112 -167 -271 -172 -275 -4 -3 -17 -22 -30
-43 -13 -21 -28 -43 -35 -50 -6 -6 -25 -30 -41 -52 -27 -37 -88 -111 -160
-195 -39 -45 -260 -266 -305 -305 -84 -72 -158 -133 -195 -160 -22 -16 -46
-35 -52 -41 -7 -7 -29 -22 -50 -35 -21 -13 -40 -26 -43 -30 -4 -5 -163 -104
-275 -172 -78 -46 -389 -193 -432 -203 -16 -4 -32 -10 -38 -14 -5 -5 -46 -20
-90 -35 -44 -14 -89 -30 -100 -34 -38 -16 -132 -41 -152 -41 -11 0 -23 -3 -27
-7 -10 -10 -92 -31 -156 -39 -30 -3 -59 -10 -65 -14 -5 -4 -30 -10 -55 -13
-25 -3 -88 -10 -140 -17 -52 -6 -120 -15 -151 -20 -72 -13 -587 -13 -658 0
-31 5 -99 14 -151 20 -155 17 -184 22 -195 30 -5 4 -35 11 -65 14 -64 8 -146
29 -156 39 -4 4 -16 7 -27 7 -20 0 -114 25 -152 41 -11 4 -56 20 -100 34 -44
15 -84 30 -90 35 -5 4 -22 10 -38 14 -30 7 -94 35 -234 102 -51 24 -97 44
-103 44 -5 0 -10 4 -10 8 0 4 -12 13 -27 19 -16 6 -41 20 -58 30 -209 128
-271 167 -273 174 -2 5 -8 9 -14 9 -8 0 -74 45 -88 60 -3 4 -23 19 -45 35 -22
16 -67 52 -100 80 -33 27 -71 59 -84 70 -33 26 -300 293 -326 326 -11 13 -43
51 -70 84 -28 33 -64 78 -80 100 -16 22 -31 42 -35 45 -15 14 -60 80 -60 89 0
6 -4 11 -8 11 -5 0 -17 16 -28 35 -10 19 -22 35 -26 35 -5 0 -8 5 -8 10 0 6
-22 46 -50 90 -27 44 -50 84 -50 90 0 5 -3 10 -8 10 -4 0 -16 20 -27 45 -11
25 -23 45 -27 45 -5 0 -8 4 -8 10 0 5 -22 55 -49 112 -65 137 -91 197 -91 204
0 3 -6 20 -14 37 -8 18 -22 55 -31 82 -9 28 -21 58 -26 67 -5 10 -9 25 -9 33
0 8 -4 23 -9 33 -12 24 -41 125 -41 146 0 9 -4 24 -10 34 -13 24 -40 143 -40
178 0 17 -4 34 -9 39 -10 11 -14 41 -31 200 -6 55 -15 119 -20 143 -13 55 -13
609 0 664 5 24 14 88 20 143 17 159 21 189 31 200 5 5 9 22 9 39 0 35 27 154
40 178 6 10 10 25 10 34 0 21 29 122 41 146 5 10 9 25 9 33 0 8 4 23 9 33 5 9
17 40 26 67 9 28 23 64 31 82 8 17 14 34 14 37 0 7 26 67 91 204 27 57 49 107
49 112 0 6 3 10 8 10 4 0 16 20 27 45 11 25 23 45 27 45 5 0 8 5 8 10 0 6 22
46 50 90 27 44 50 84 50 90 0 5 3 10 8 10 4 0 16 16 26 35 11 19 23 35 28 35
4 0 8 5 8 11 0 9 37 63 65 95 6 7 19 24 30 40 20 28 54 70 128 159 56 67 309
319 376 375 95 79 115 95 156 125 22 16 42 31 45 35 14 15 80 60 89 60 6 0 11
4 11 8 0 5 16 17 35 28 19 10 35 21 35 25 0 4 8 9 18 13 9 3 26 11 36 18 63
42 126 78 136 78 5 0 10 3 10 8 0 4 20 16 45 27 25 11 45 23 45 28 0 4 4 7 10
7 5 0 55 22 112 49 137 65 197 91 204 91 3 0 20 6 37 14 18 8 55 22 82 31 28
9 58 21 67 26 10 5 25 9 33 9 8 0 23 4 33 9 26 14 126 41 150 41 11 0 23 4 26
9 3 5 18 11 33 14 16 3 64 13 108 22 146 30 179 35 285 46 58 6 119 14 135 19
43 11 616 12 667 0z"/>
<path d="M3121 6219 c-12 -19 -21 -43 -21 -54 0 -12 -4 -25 -8 -30 -17 -19
-36 -162 -35 -260 1 -57 9 -128 18 -165 9 -36 19 -74 21 -85 3 -12 -5 -31 -22
-50 -36 -40 -107 -151 -128 -200 -30 -68 -34 -78 -50 -128 -9 -26 -16 -60 -16
-75 0 -16 -5 -33 -10 -38 -13 -13 -7 -361 7 -450 12 -73 32 -161 43 -189 4
-11 14 -36 20 -55 18 -51 73 -163 88 -178 6 -8 17 -23 23 -34 29 -53 154 -178
207 -207 11 -6 26 -17 34 -24 15 -15 164 -88 218 -107 19 -6 44 -16 55 -20 26
-11 110 -31 160 -37 22 -3 44 -9 50 -14 5 -5 29 -10 55 -10 60 -2 103 -12 107
-25 2 -6 -10 -26 -27 -45 -26 -30 -64 -98 -91 -164 -4 -11 -11 -39 -14 -63
-10 -62 -6 -60 -181 -113 -17 -5 -66 -9 -109 -9 -180 0 -320 86 -440 268 -114
176 -297 275 -424 231 -17 -6 -31 -16 -31 -23 0 -16 63 -75 122 -114 25 -18
67 -56 92 -85 52 -61 126 -184 126 -209 0 -10 5 -18 10 -18 6 0 10 -6 10 -14
0 -32 59 -125 116 -181 73 -73 167 -124 274 -148 58 -13 269 -13 340 0 30 6
58 8 62 4 8 -7 14 -207 10 -372 -2 -98 -4 -108 -27 -133 -14 -15 -25 -29 -25
-31 0 -2 19 -9 43 -16 23 -6 51 -15 62 -19 73 -30 385 -73 525 -73 132 0 434
44 505 73 11 4 48 16 82 26 l62 19 -22 23 c-22 23 -22 28 -28 455 -7 419 -11
501 -30 513 -5 3 -9 12 -9 19 0 27 -51 122 -85 158 -19 21 -35 39 -35 41 0 10
67 26 109 26 26 0 51 4 57 9 5 5 27 11 49 14 58 7 137 26 157 37 10 6 27 10
37 10 11 0 23 5 26 10 3 6 13 10 21 10 18 0 183 80 202 98 8 6 23 17 34 23 32
17 102 82 164 151 37 41 114 166 114 185 0 7 3 13 8 13 4 0 16 28 26 63 11 34
23 66 28 72 4 5 8 21 8 35 0 14 4 30 9 36 18 18 35 203 35 369 1 206 -11 271
-70 403 -13 29 -24 55 -24 57 0 9 -88 141 -114 170 -26 30 -34 69 -17 79 15
10 23 76 28 230 2 97 0 153 -6 159 -6 6 -11 22 -11 34 0 35 -39 150 -56 163
-8 8 -27 10 -46 6 -18 -4 -53 -11 -78 -15 -51 -10 -115 -28 -145 -40 -11 -5
-46 -21 -78 -35 -32 -14 -62 -26 -67 -26 -6 0 -10 -3 -10 -8 0 -4 -20 -16 -45
-27 -25 -11 -45 -23 -45 -27 0 -5 -6 -8 -14 -8 -8 0 -16 -3 -18 -7 -1 -5 -22
-20 -45 -35 -44 -29 -77 -35 -88 -18 -3 6 -21 10 -39 10 -18 0 -36 3 -40 8
-15 15 -364 55 -481 55 -76 0 -289 -20 -395 -38 -149 -24 -160 -27 -166 -36
-11 -19 -46 -8 -113 35 -82 53 -220 126 -237 126 -7 0 -14 4 -16 8 -4 11 -131
53 -193 64 -123 22 -112 23 -134 -13z"/>
</g>
</svg>
